<svg width="10" height="18" viewBox="0 0 10 18" fill="none" xmlns="http://www.w3.org/2000/svg">
<path d="M9.36076 1.34627C9.552 1.14706 9.54554 0.830544 9.34633 0.639306C9.14713 0.448069 8.83061 0.454528 8.63938 0.653734L9.36076 1.34627ZM1.32007 9L0.959375 8.65373C0.773633 8.84722 0.773633 9.15279 0.959375 9.34627L1.32007 9ZM8.63938 17.3463C8.83061 17.5455 9.14713 17.5519 9.34633 17.3607C9.54554 17.1695 9.552 16.8529 9.36076 16.6537L8.63938 17.3463ZM8.63938 0.653734L0.959375 8.65373L1.68076 9.34627L9.36076 1.34627L8.63938 0.653734ZM0.959375 9.34627L8.63938 17.3463L9.36076 16.6537L1.68076 8.65373L0.959375 9.34627Z" fill="black"/>
</svg>
