<svg width="20" height="20" viewBox="0 0 20 20" fill="none" xmlns="http://www.w3.org/2000/svg">
<path d="M1.71062 8.11064C1.77173 7.84135 1.60296 7.5735 1.33366 7.5124C1.06436 7.45129 0.796519 7.62006 0.735412 7.88936L1.71062 8.11064ZM3.66654 2.91911C3.46078 3.10328 3.44327 3.41937 3.62743 3.62514C3.8116 3.8309 4.12769 3.84841 4.33346 3.66425L3.66654 2.91911ZM13 12.5C12.7238 12.5 12.5 12.7239 12.5 13C12.5 13.2762 12.7239 13.5 13 13.5L13 12.5ZM15.5 16.7083C15.5 16.9845 15.7239 17.2083 16 17.2083C16.2761 17.2083 16.5 16.9845 16.5 16.7083H15.5ZM3.5 16.7083C3.5 16.9845 3.72386 17.2083 4 17.2083C4.27614 17.2083 4.5 16.9845 4.5 16.7083H3.5ZM7 13L6.99999 13.5H7V13ZM9 13.5C9.27614 13.5 9.5 13.2761 9.5 13C9.5 12.7239 9.27614 12.5 9 12.5V13.5ZM10 1.5C14.6944 1.5 18.5 5.30558 18.5 10H19.5C19.5 4.75329 15.2467 0.5 10 0.5V1.5ZM10 18.5C5.30558 18.5 1.5 14.6944 1.5 10H0.5C0.5 15.2467 4.75329 19.5 10 19.5V18.5ZM18.5 10C18.5 14.6944 14.6944 18.5 10 18.5V19.5C15.2467 19.5 19.5 15.2467 19.5 10H18.5ZM1.5 10C1.5 9.35009 1.57285 8.71781 1.71062 8.11064L0.735412 7.88936C0.581275 8.56864 0.5 9.27513 0.5 10H1.5ZM4.33346 3.66425C5.8376 2.318 7.82268 1.5 10 1.5V0.5C7.5672 0.5 5.34694 1.41512 3.66654 2.91911L4.33346 3.66425ZM12.5 7C12.5 8.38071 11.3807 9.5 10 9.5V10.5C11.933 10.5 13.5 8.933 13.5 7H12.5ZM10 9.5C8.61929 9.5 7.5 8.38071 7.5 7H6.5C6.5 8.933 8.067 10.5 10 10.5V9.5ZM7.5 7C7.5 5.61929 8.61929 4.5 10 4.5V3.5C8.067 3.5 6.5 5.067 6.5 7H7.5ZM10 4.5C11.3807 4.5 12.5 5.61929 12.5 7H13.5C13.5 5.067 11.933 3.5 10 3.5V4.5ZM13 13.5C13.7053 13.5 14.3202 13.9001 14.7798 14.5388C15.2416 15.1806 15.5 16.006 15.5 16.7083H16.5C16.5 15.7909 16.1725 14.7621 15.5914 13.9547C15.0081 13.1441 14.123 12.5 13 12.5L13 13.5ZM4.5 16.7083C4.5 16.006 4.75837 15.1806 5.22023 14.5388C5.67984 13.9001 6.29474 13.5 6.99999 13.5L7.00001 12.5C5.87697 12.5 4.99188 13.1441 4.40856 13.9547C3.82749 14.7621 3.5 15.7909 3.5 16.7083H4.5ZM7 13.5H9V12.5H7V13.5Z" fill="black"/>
</svg>
