<svg width="18" height="19" viewBox="0 0 18 19" fill="none" xmlns="http://www.w3.org/2000/svg">
<path d="M11.5 14C11.5 14.2761 11.7239 14.5 12 14.5C12.2761 14.5 12.5 14.2761 12.5 14H11.5ZM11.1213 11.8787L11.4749 11.5251L11.4749 11.5251L11.1213 11.8787ZM6 18V18.5C6.27615 18.5 6.5 18.2761 6.5 18H6ZM1 18H0.500004C0.500004 18.2761 0.723862 18.5 1 18.5V18ZM1 8L0.670748 7.62371C0.56224 7.71866 0.5 7.85582 0.5 8H1ZM5.32925 4.87629C5.53707 4.69445 5.55813 4.37857 5.37629 4.17075C5.19445 3.96293 4.87857 3.94187 4.67075 4.12371L5.32925 4.87629ZM17 8H17.5C17.5 7.85582 17.4378 7.71866 17.3292 7.62371L17 8ZM9.32925 0.623712C9.12143 0.441871 8.80555 0.462929 8.62371 0.670748C8.44187 0.878566 8.46293 1.19445 8.67075 1.37629L9.32925 0.623712ZM17 18V18.5C17.1326 18.5 17.2598 18.4473 17.3536 18.3536C17.4473 18.2598 17.5 18.1326 17.5 18H17ZM12 17.5C11.7239 17.5 11.5 17.7239 11.5 18C11.5 18.2761 11.7239 18.5 12 18.5V17.5ZM12.5 14C12.5 13.0717 12.1313 12.1815 11.4749 11.5251L10.7678 12.2322C11.2366 12.7011 11.5 13.337 11.5 14H12.5ZM11.4749 11.5251C10.8185 10.8687 9.92826 10.5 9 10.5V11.5C9.66305 11.5 10.2989 11.7634 10.7678 12.2322L11.4749 11.5251ZM9 10.5C8.07175 10.5 7.18151 10.8687 6.52513 11.5251L7.23224 12.2322C7.70108 11.7634 8.33696 11.5 9 11.5V10.5ZM6.52513 11.5251C5.86875 12.1815 5.5 13.0717 5.5 14H6.5C6.5 13.337 6.7634 12.7011 7.23224 12.2322L6.52513 11.5251ZM5.5 14V18H6.5V14H5.5ZM6 17.5H1V18.5H6V17.5ZM1.5 18L1.5 8H0.5L0.500004 18H1.5ZM4.67075 4.12371L0.670748 7.62371L1.32925 8.37629L5.32925 4.87629L4.67075 4.12371ZM17.3292 7.62371L9.32925 0.623712L8.67075 1.37629L16.6707 8.37629L17.3292 7.62371ZM16.5 8L16.5 18H17.5L17.5 8H16.5ZM17 17.5H12V18.5H17V17.5Z" fill="black"/>
</svg>
