<svg width="20" height="16" viewBox="0 0 20 16" fill="none" xmlns="http://www.w3.org/2000/svg">
<path d="M18.5 5V13H19.5V5H18.5ZM17 14.5H3V15.5H17V14.5ZM1.5 13V5H0.5V13H1.5ZM3 3.5H5.5V2.5H3V3.5ZM14.5 3.5H17V2.5H14.5V3.5ZM7.5 1.5H12.5V0.5H7.5V1.5ZM7 2C7 1.72386 7.22386 1.5 7.5 1.5V0.5C6.67157 0.5 6 1.17157 6 2H7ZM13 2C13 2.82843 13.6716 3.5 14.5 3.5V2.5C14.2239 2.5 14 2.27614 14 2H13ZM5.5 3.5C6.32843 3.5 7 2.82843 7 2H6C6 2.27614 5.77614 2.5 5.5 2.5V3.5ZM14 2C14 1.17157 13.3284 0.5 12.5 0.5V1.5C12.7761 1.5 13 1.72386 13 2H14ZM3 14.5C2.17157 14.5 1.5 13.8284 1.5 13H0.5C0.5 14.3807 1.61929 15.5 3 15.5V14.5ZM18.5 13C18.5 13.8284 17.8284 14.5 17 14.5V15.5C18.3807 15.5 19.5 14.3807 19.5 13H18.5ZM19.5 5C19.5 3.61929 18.3807 2.5 17 2.5V3.5C17.8284 3.5 18.5 4.17157 18.5 5H19.5ZM1.5 5C1.5 4.17157 2.17157 3.5 3 3.5V2.5C1.61929 2.5 0.5 3.61929 0.5 5H1.5ZM12.5 9C12.5 10.3807 11.3807 11.5 10 11.5V12.5C11.933 12.5 13.5 10.933 13.5 9H12.5ZM10 11.5C8.61929 11.5 7.5 10.3807 7.5 9H6.5C6.5 10.933 8.067 12.5 10 12.5V11.5ZM7.5 9C7.5 7.61929 8.61929 6.5 10 6.5V5.5C8.067 5.5 6.5 7.067 6.5 9H7.5ZM10 6.5C11.3807 6.5 12.5 7.61929 12.5 9H13.5C13.5 7.067 11.933 5.5 10 5.5V6.5Z" fill="#999999"/>
</svg>
