<svg width="50" height="50" viewBox="0 0 50 50" fill="none" xmlns="http://www.w3.org/2000/svg">
<circle cx="25" cy="25" r="25" fill="#683CED"/>
<path d="M25 32.5C24.7239 32.5 24.5 32.7239 24.5 33C24.5 33.2761 24.7239 33.5 25 33.5V32.5ZM33.5 33.5C33.7761 33.5 34 33.2761 34 33C34 32.7239 33.7761 32.5 33.5 32.5V33.5ZM17 33H16.5C16.5 33.2761 16.7239 33.5 17 33.5V33ZM17 29L16.6464 28.6464C16.5527 28.7402 16.5 28.8674 16.5 29H17ZM30 16L30.3536 15.6464C30.1583 15.4512 29.8417 15.4512 29.6464 15.6464L30 16ZM34 20L34.3536 20.3536C34.5488 20.1583 34.5488 19.8417 34.3536 19.6464L34 20ZM21 33V33.5C21.1326 33.5 21.2598 33.4473 21.3536 33.3536L21 33ZM25 33.5H33.5V32.5H25V33.5ZM17.5 33V29H16.5V33H17.5ZM29.6464 16.3536L33.6464 20.3536L34.3536 19.6464L30.3536 15.6464L29.6464 16.3536ZM21 32.5H17V33.5H21V32.5ZM33.6464 19.6464L30.6464 22.6464L31.3536 23.3536L34.3536 20.3536L33.6464 19.6464ZM30.6464 22.6464L20.6464 32.6464L21.3536 33.3536L31.3536 23.3536L30.6464 22.6464ZM17.3536 29.3536L27.3536 19.3536L26.6464 18.6464L16.6464 28.6464L17.3536 29.3536ZM27.3536 19.3536L30.3536 16.3536L29.6464 15.6464L26.6464 18.6464L27.3536 19.3536ZM31.3536 22.6464L27.3536 18.6464L26.6464 19.3536L30.6464 23.3536L31.3536 22.6464Z" fill="white"/>
</svg>
