<svg width="32" height="20" viewBox="0 0 32 20" fill="none" xmlns="http://www.w3.org/2000/svg">
<path d="M1.33325 19.3333H0.833252C0.833252 19.6095 1.05711 19.8333 1.33325 19.8333V19.3333ZM3.99992 19.8333C4.27606 19.8333 4.49992 19.6095 4.49992 19.3333C4.49992 19.0572 4.27606 18.8333 3.99992 18.8333V19.8333ZM5.45788 13.3189C5.72531 13.2501 5.8863 12.9775 5.81747 12.7101C5.74864 12.4426 5.47605 12.2816 5.20862 12.3505L5.45788 13.3189ZM7.8333 8.91047C8.09365 9.00249 8.37931 8.86603 8.47134 8.60567C8.56336 8.34531 8.4269 8.05965 8.16654 7.96763L7.8333 8.91047ZM8.16654 1.36568C8.4269 1.27366 8.56336 0.987999 8.47134 0.727641C8.37931 0.467283 8.09365 0.330821 7.8333 0.422844L8.16654 1.36568ZM30.6666 19.3333V19.8333C30.9427 19.8333 31.1666 19.6095 31.1666 19.3333H30.6666ZM27.9999 18.8333C27.7238 18.8333 27.4999 19.0572 27.4999 19.3333C27.4999 19.6095 27.7238 19.8333 27.9999 19.8333V18.8333ZM26.7912 12.3505C26.5238 12.2816 26.2512 12.4426 26.1824 12.7101C26.1135 12.9775 26.2745 13.2501 26.542 13.3189L26.7912 12.3505ZM24.1665 0.422844C23.9062 0.330821 23.6205 0.467283 23.5285 0.727641C23.4365 0.987999 23.5729 1.27366 23.8333 1.36568L24.1665 0.422844ZM23.8333 7.96763C23.5729 8.05965 23.4365 8.34531 23.5285 8.60567C23.6205 8.86603 23.9062 9.00249 24.1665 8.91047L23.8333 7.96763ZM23.9999 19.3333V19.8333C24.2761 19.8333 24.4999 19.6095 24.4999 19.3333H23.9999ZM7.99992 19.3333H7.49992C7.49992 19.6095 7.72378 19.8333 7.99992 19.8333V19.3333ZM0.833252 18V19.3333H1.83325V18H0.833252ZM1.33325 19.8333H3.99992V18.8333H1.33325V19.8333ZM1.83325 18C1.83325 15.7486 3.37312 13.8555 5.45788 13.3189L5.20862 12.3505C2.69277 12.998 0.833252 15.2812 0.833252 18H1.83325ZM4.83325 4.66666C4.83325 6.62677 6.08618 8.29295 7.8333 8.91047L8.16654 7.96763C6.80648 7.48692 5.83325 6.1898 5.83325 4.66666H4.83325ZM7.8333 0.422844C6.08618 1.04036 4.83325 2.70655 4.83325 4.66666H5.83325C5.83325 3.14352 6.80648 1.8464 8.16654 1.36568L7.8333 0.422844ZM30.1666 18V19.3333H31.1666V18H30.1666ZM30.6666 18.8333H27.9999V19.8333H30.6666V18.8333ZM31.1666 18C31.1666 15.2812 29.3071 12.998 26.7912 12.3505L26.542 13.3189C28.6267 13.8555 30.1666 15.7486 30.1666 18H31.1666ZM23.8333 1.36568C25.1934 1.8464 26.1666 3.14352 26.1666 4.66666H27.1666C27.1666 2.70655 25.9137 1.04036 24.1665 0.422844L23.8333 1.36568ZM26.1666 4.66666C26.1666 6.1898 25.1934 7.48692 23.8333 7.96763L24.1665 8.91047C25.9137 8.29295 27.1666 6.62677 27.1666 4.66666H26.1666ZM13.3333 13.1667H18.6666V12.1667H13.3333V13.1667ZM23.4999 18V19.3333H24.4999V18H23.4999ZM8.49992 19.3333V18H7.49992V19.3333H8.49992ZM18.6666 13.1667C21.336 13.1667 23.4999 15.3306 23.4999 18H24.4999C24.4999 14.7783 21.8882 12.1667 18.6666 12.1667V13.1667ZM13.3333 12.1667C10.1116 12.1667 7.49992 14.7783 7.49992 18H8.49992C8.49992 15.3306 10.6639 13.1667 13.3333 13.1667V12.1667ZM23.9999 18.8333H7.99992V19.8333H23.9999V18.8333ZM19.4999 4.66666C19.4999 6.59966 17.9329 8.16666 15.9999 8.16666V9.16666C18.4852 9.16666 20.4999 7.15195 20.4999 4.66666H19.4999ZM15.9999 8.16666C14.0669 8.16666 12.4999 6.59966 12.4999 4.66666H11.4999C11.4999 7.15195 13.5146 9.16666 15.9999 9.16666V8.16666ZM12.4999 4.66666C12.4999 2.73367 14.0669 1.16666 15.9999 1.16666V0.166664C13.5146 0.166664 11.4999 2.18138 11.4999 4.66666H12.4999ZM15.9999 1.16666C17.9329 1.16666 19.4999 2.73367 19.4999 4.66666H20.4999C20.4999 2.18138 18.4852 0.166664 15.9999 0.166664V1.16666Z" fill="white"/>
</svg>
