<svg width="18" height="18" viewBox="0 0 18 18" fill="none" xmlns="http://www.w3.org/2000/svg">
<path d="M1.25 1V0.25C0.835786 0.25 0.5 0.585786 0.5 1L1.25 1ZM17.25 1H18C18 0.585786 17.6642 0.25 17.25 0.25V1ZM17.25 17V17.75C17.6642 17.75 18 17.4142 18 17H17.25ZM1.25 17H0.5C0.5 17.4142 0.835786 17.75 1.25 17.75L1.25 17ZM2 9C2 8.58579 1.66421 8.25 1.25 8.25C0.835786 8.25 0.5 8.58579 0.5 9H2ZM0.5 4C0.5 4.41421 0.835786 4.75 1.25 4.75C1.66421 4.75 2 4.41421 2 4H0.5ZM4.25 4.25C3.83579 4.25 3.5 4.58579 3.5 5C3.5 5.41421 3.83579 5.75 4.25 5.75V4.25ZM14.25 5.75C14.6642 5.75 15 5.41421 15 5C15 4.58579 14.6642 4.25 14.25 4.25V5.75ZM4.25 8.25C3.83579 8.25 3.5 8.58579 3.5 9C3.5 9.41421 3.83579 9.75 4.25 9.75V8.25ZM14.25 9.75C14.6642 9.75 15 9.41421 15 9C15 8.58579 14.6642 8.25 14.25 8.25V9.75ZM4.25 12.25C3.83579 12.25 3.5 12.5858 3.5 13C3.5 13.4142 3.83579 13.75 4.25 13.75V12.25ZM10.25 13.75C10.6642 13.75 11 13.4142 11 13C11 12.5858 10.6642 12.25 10.25 12.25V13.75ZM1.25 1.75H17.25V0.25H1.25V1.75ZM16.5 1V17H18V1H16.5ZM17.25 16.25H1.25V17.75H17.25V16.25ZM2 17V9H0.5V17H2ZM2 4V1H0.5V4H2ZM4.25 5.75H14.25V4.25H4.25V5.75ZM4.25 9.75H14.25V8.25H4.25V9.75ZM4.25 13.75H10.25V12.25H4.25V13.75Z" fill="#683CED"/>
</svg>
