<svg width="16" height="13" viewBox="0 0 16 13" fill="none" xmlns="http://www.w3.org/2000/svg">
<path d="M14.5 4.14286V10.4286H15.5V4.14286H14.5ZM13.4444 11.5H2.55556V12.5H13.4444V11.5ZM1.5 10.4286V4.14286H0.5V10.4286H1.5ZM2.55556 3.07143H4.5V2.07143H2.55556V3.07143ZM11.5 3.07143H13.4444V2.07143H11.5V3.07143ZM6.05556 1.5H9.94444V0.5H6.05556V1.5ZM5.77778 1.78571C5.77778 1.62312 5.90692 1.5 6.05556 1.5V0.5C5.34508 0.5 4.77778 1.08043 4.77778 1.78571H5.77778ZM10.2222 1.78571C10.2222 2.491 10.7895 3.07143 11.5 3.07143V2.07143C11.3514 2.07143 11.2222 1.94831 11.2222 1.78571H10.2222ZM4.5 3.07143C5.21047 3.07143 5.77778 2.491 5.77778 1.78571H4.77778C4.77778 1.94831 4.64864 2.07143 4.5 2.07143V3.07143ZM11.2222 1.78571C11.2222 1.08043 10.6549 0.5 9.94444 0.5V1.5C10.0931 1.5 10.2222 1.62312 10.2222 1.78571H11.2222ZM2.55556 11.5C1.97736 11.5 1.5 11.0251 1.5 10.4286H0.5C0.5 11.5678 1.41553 12.5 2.55556 12.5V11.5ZM14.5 10.4286C14.5 11.0251 14.0226 11.5 13.4444 11.5V12.5C14.5845 12.5 15.5 11.5678 15.5 10.4286H14.5ZM15.5 4.14286C15.5 3.00364 14.5845 2.07143 13.4444 2.07143V3.07143C14.0226 3.07143 14.5 3.54633 14.5 4.14286H15.5ZM1.5 4.14286C1.5 3.54633 1.97736 3.07143 2.55556 3.07143V2.07143C1.41553 2.07143 0.5 3.00364 0.5 4.14286H1.5ZM9.83333 7.28571C9.83333 8.31618 9.00775 9.14286 8 9.14286V10.1429C9.56958 10.1429 10.8333 8.85887 10.8333 7.28571H9.83333ZM8 9.14286C6.99225 9.14286 6.16667 8.31618 6.16667 7.28571H5.16667C5.16667 8.85887 6.43042 10.1429 8 10.1429V9.14286ZM6.16667 7.28571C6.16667 6.25524 6.99225 5.42857 8 5.42857V4.42857C6.43042 4.42857 5.16667 5.71256 5.16667 7.28571H6.16667ZM8 5.42857C9.00775 5.42857 9.83333 6.25524 9.83333 7.28571H10.8333C10.8333 5.71256 9.56958 4.42857 8 4.42857V5.42857Z" fill="white"/>
</svg>
