<svg width="32" height="22" viewBox="0 0 32 22" fill="none" xmlns="http://www.w3.org/2000/svg">
<path d="M1.33337 20.3333H0.583374C0.583374 20.7476 0.91916 21.0833 1.33337 21.0833L1.33337 20.3333ZM4.00004 21.0833C4.41425 21.0833 4.75004 20.7476 4.75004 20.3333C4.75004 19.9191 4.41425 19.5833 4.00004 19.5833V21.0833ZM5.52032 14.561C5.92146 14.4578 6.16295 14.0489 6.0597 13.6478C5.95646 13.2466 5.54757 13.0051 5.14643 13.1084L5.52032 14.561ZM7.75011 10.1462C8.14064 10.2842 8.56914 10.0795 8.70717 9.68899C8.84521 9.29845 8.64051 8.86996 8.24997 8.73193L7.75011 10.1462ZM8.24997 2.6014C8.64051 2.46337 8.84521 2.03487 8.70717 1.64434C8.56914 1.2538 8.14064 1.04911 7.75011 1.18714L8.24997 2.6014ZM30.6667 20.3333V21.0833C31.0809 21.0833 31.4167 20.7476 31.4167 20.3333H30.6667ZM28 19.5833C27.5858 19.5833 27.25 19.9191 27.25 20.3333C27.25 20.7476 27.5858 21.0833 28 21.0833V19.5833ZM26.8536 13.1084C26.4525 13.0051 26.0436 13.2466 25.9404 13.6478C25.8371 14.0489 26.0786 14.4578 26.4798 14.561L26.8536 13.1084ZM24.25 1.18714C23.8594 1.04911 23.4309 1.2538 23.2929 1.64434C23.1549 2.03487 23.3596 2.46337 23.7501 2.6014L24.25 1.18714ZM23.7501 8.73193C23.3596 8.86996 23.1549 9.29845 23.2929 9.68899C23.4309 10.0795 23.8594 10.2842 24.25 10.1462L23.7501 8.73193ZM24 20.3333V21.0833C24.4143 21.0833 24.75 20.7476 24.75 20.3333H24ZM8.00004 20.3333H7.25004C7.25004 20.7476 7.58583 21.0833 8.00004 21.0833V20.3333ZM0.583374 19V20.3333H2.08337V19H0.583374ZM1.33337 21.0833H4.00004V19.5833H1.33337V21.0833ZM2.08337 19C2.08337 16.8654 3.54333 15.0699 5.52032 14.561L5.14643 13.1084C2.52281 13.7836 0.583374 16.1644 0.583374 19H2.08337ZM4.58337 5.66666C4.58337 7.73602 5.90623 9.49447 7.75011 10.1462L8.24997 8.73193C6.98667 8.28541 6.08337 7.08056 6.08337 5.66666H4.58337ZM7.75011 1.18714C5.90623 1.83886 4.58337 3.59731 4.58337 5.66666H6.08337C6.08337 4.25277 6.98667 3.04792 8.24997 2.6014L7.75011 1.18714ZM29.9167 19V20.3333H31.4167V19H29.9167ZM30.6667 19.5833H28V21.0833H30.6667V19.5833ZM31.4167 19C31.4167 16.1644 29.4773 13.7836 26.8536 13.1084L26.4798 14.561C28.4567 15.0699 29.9167 16.8654 29.9167 19H31.4167ZM23.7501 2.6014C25.0134 3.04792 25.9167 4.25277 25.9167 5.66666H27.4167C27.4167 3.59731 26.0939 1.83886 24.25 1.18714L23.7501 2.6014ZM25.9167 5.66666C25.9167 7.08056 25.0134 8.28541 23.7501 8.73193L24.25 10.1462C26.0939 9.49447 27.4167 7.73602 27.4167 5.66666H25.9167ZM13.3334 14.4167H18.6667V12.9167H13.3334V14.4167ZM23.25 19V20.3333H24.75V19H23.25ZM8.75004 20.3333V19H7.25004V20.3333H8.75004ZM18.6667 14.4167C21.198 14.4167 23.25 16.4687 23.25 19H24.75C24.75 15.6403 22.0264 12.9167 18.6667 12.9167V14.4167ZM13.3334 12.9167C9.97364 12.9167 7.25004 15.6403 7.25004 19H8.75004C8.75004 16.4687 10.8021 14.4167 13.3334 14.4167V12.9167ZM24 19.5833H8.00004V21.0833H24V19.5833ZM19.25 5.66667C19.25 7.4616 17.795 8.91667 16 8.91667V10.4167C18.6234 10.4167 20.75 8.29002 20.75 5.66667H19.25ZM16 8.91667C14.2051 8.91667 12.75 7.4616 12.75 5.66667H11.25C11.25 8.29002 13.3767 10.4167 16 10.4167V8.91667ZM12.75 5.66667C12.75 3.87175 14.2051 2.41667 16 2.41667V0.916672C13.3767 0.916672 11.25 3.04332 11.25 5.66667H12.75ZM16 2.41667C17.795 2.41667 19.25 3.87175 19.25 5.66667H20.75C20.75 3.04332 18.6234 0.916672 16 0.916672V2.41667Z" fill="white"/>
</svg>
