<svg width="19" height="17" viewBox="0 0 19 17" fill="none" xmlns="http://www.w3.org/2000/svg">
<path opacity="0.15" d="M2.06806 8.77923L9.27033 15.8947L16.4726 8.77924C17.2732 7.98824 17.723 6.91542 17.723 5.79678C17.723 3.46734 15.8116 1.57895 13.4538 1.57895C12.3215 1.57895 11.2356 2.02333 10.435 2.81432L9.27033 3.96491L8.10571 2.81432C7.30507 2.02333 6.21916 1.57895 5.08689 1.57895C2.72904 1.57895 0.817627 3.46734 0.817627 5.79678C0.817627 6.91542 1.26742 7.98824 2.06806 8.77923Z" fill="#925CE9"/>
<path d="M2.06806 8.77923L9.27033 15.8947L16.4726 8.77924C17.2732 7.98824 17.723 6.91542 17.723 5.79678C17.723 3.46734 15.8116 1.57895 13.4538 1.57895C12.3215 1.57895 11.2356 2.02333 10.435 2.81432L9.27033 3.96491L8.10571 2.81432C7.30507 2.02333 6.21916 1.57895 5.08689 1.57895C2.72904 1.57895 0.817627 3.46734 0.817627 5.79678C0.817627 6.91542 1.26742 7.98824 2.06806 8.77923Z" stroke="#925CE9" stroke-width="1.5" stroke-linecap="round" stroke-linejoin="round"/>
</svg>

