<svg width="18" height="20" viewBox="0 0 18 20" fill="none" xmlns="http://www.w3.org/2000/svg">
<path d="M6.75 9C6.75 8.58579 6.41421 8.25 6 8.25C5.58579 8.25 5.25 8.58579 5.25 9H6.75ZM9 5.25C8.58579 5.25 8.25 5.58579 8.25 6C8.25 6.41421 8.58579 6.75 9 6.75V5.25ZM8.69071 19.6833C9.06807 19.8541 9.51244 19.6866 9.68326 19.3093C9.85407 18.9319 9.68664 18.4876 9.30929 18.3167L8.69071 19.6833ZM12.5572 15.9245C12.2394 16.1902 12.1971 16.6632 12.4627 16.981C12.7284 17.2988 13.2014 17.3411 13.5192 17.0755L12.5572 15.9245ZM11.25 9C11.25 10.2426 10.2426 11.25 9 11.25V12.75C11.0711 12.75 12.75 11.0711 12.75 9H11.25ZM9 11.25C7.75736 11.25 6.75 10.2426 6.75 9H5.25C5.25 11.0711 6.92893 12.75 9 12.75V11.25ZM9 6.75C10.2426 6.75 11.25 7.75736 11.25 9H12.75C12.75 6.92893 11.0711 5.25 9 5.25V6.75ZM9.30929 18.3167C5.00044 16.3663 1.75 12.982 1.75 9H0.25C0.25 13.8545 4.163 17.6337 8.69071 19.6833L9.30929 18.3167ZM1.75 9C1.75 4.99594 4.99594 1.75 9 1.75V0.25C4.16751 0.25 0.25 4.16751 0.25 9H1.75ZM9 1.75C13.0041 1.75 16.25 4.99594 16.25 9H17.75C17.75 4.16751 13.8325 0.25 9 0.25V1.75ZM16.25 9C16.25 11.655 14.8172 14.0355 12.5572 15.9245L13.5192 17.0755C15.9995 15.0023 17.75 12.2357 17.75 9H16.25Z" fill="#683CED"/>
</svg>
