<svg width="18" height="20" viewBox="0 0 18 20" fill="none" xmlns="http://www.w3.org/2000/svg">
<path d="M6.5 9C6.5 8.72386 6.27614 8.5 6 8.5C5.72386 8.5 5.5 8.72386 5.5 9H6.5ZM9 5.5C8.72386 5.5 8.5 5.72386 8.5 6C8.5 6.27614 8.72386 6.5 9 6.5V5.5ZM8.79381 19.4555C9.04538 19.5694 9.34163 19.4578 9.45551 19.2062C9.56938 18.9546 9.45776 18.6584 9.20619 18.5445L8.79381 19.4555ZM12.7175 16.1164C12.5056 16.2935 12.4774 16.6088 12.6545 16.8207C12.8316 17.0325 13.147 17.0607 13.3588 16.8836L12.7175 16.1164ZM11.5 9C11.5 10.3807 10.3807 11.5 9 11.5V12.5C10.933 12.5 12.5 10.933 12.5 9H11.5ZM9 11.5C7.61929 11.5 6.5 10.3807 6.5 9H5.5C5.5 10.933 7.067 12.5 9 12.5V11.5ZM9 6.5C10.3807 6.5 11.5 7.61929 11.5 9H12.5C12.5 7.067 10.933 5.5 9 5.5V6.5ZM9.20619 18.5445C4.86087 16.5775 1.5 13.1274 1.5 9H0.5C0.5 13.7091 4.30257 17.4225 8.79381 19.4555L9.20619 18.5445ZM1.5 9C1.5 4.85786 4.85786 1.5 9 1.5V0.5C4.30558 0.5 0.5 4.30558 0.5 9H1.5ZM9 1.5C13.1421 1.5 16.5 4.85786 16.5 9H17.5C17.5 4.30558 13.6944 0.5 9 0.5V1.5ZM16.5 9C16.5 11.7518 15.0142 14.1967 12.7175 16.1164L13.3588 16.8836C15.8024 14.8412 17.5 12.1389 17.5 9H16.5Z" fill="black"/>
</svg>
