<svg width="20" height="20" viewBox="0 0 20 20" fill="none" xmlns="http://www.w3.org/2000/svg">
<path d="M1.95442 8.16597C2.04608 7.76202 1.79293 7.36025 1.38898 7.26859C0.985037 7.17693 0.58327 7.43009 0.49161 7.83403L1.95442 8.16597ZM3.49981 2.73283C3.19117 3.00907 3.1649 3.48322 3.44115 3.79187C3.71739 4.10051 4.19154 4.12678 4.50019 3.85053L3.49981 2.73283ZM13 12.25C12.5858 12.25 12.25 12.5858 12.25 13C12.25 13.4142 12.5858 13.75 13 13.75L13 12.25ZM15.25 16.7083C15.25 17.1225 15.5858 17.4583 16 17.4583C16.4142 17.4583 16.75 17.1225 16.75 16.7083H15.25ZM3.25 16.7083C3.25 17.1225 3.58579 17.4583 4 17.4583C4.41421 17.4583 4.75 17.1225 4.75 16.7083H3.25ZM7 13L6.99998 13.75H7V13ZM9 13.75C9.41421 13.75 9.75 13.4142 9.75 13C9.75 12.5858 9.41421 12.25 9 12.25V13.75ZM10 1.75C14.5563 1.75 18.25 5.44365 18.25 10H19.75C19.75 4.61522 15.3848 0.25 10 0.25V1.75ZM10 18.25C5.44365 18.25 1.75 14.5563 1.75 10H0.25C0.25 15.3848 4.61522 19.75 10 19.75V18.25ZM18.25 10C18.25 14.5563 14.5563 18.25 10 18.25V19.75C15.3848 19.75 19.75 15.3848 19.75 10H18.25ZM1.75 10C1.75 9.36883 1.82074 8.7551 1.95442 8.16597L0.49161 7.83403C0.333382 8.53134 0.25 9.25639 0.25 10H1.75ZM4.50019 3.85053C5.96026 2.54373 7.88655 1.75 10 1.75V0.25C7.50333 0.25 5.22428 1.1894 3.49981 2.73283L4.50019 3.85053ZM12.25 7C12.25 8.24264 11.2426 9.25 10 9.25V10.75C12.0711 10.75 13.75 9.07107 13.75 7H12.25ZM10 9.25C8.75736 9.25 7.75 8.24264 7.75 7H6.25C6.25 9.07107 7.92893 10.75 10 10.75V9.25ZM7.75 7C7.75 5.75736 8.75736 4.75 10 4.75V3.25C7.92893 3.25 6.25 4.92893 6.25 7H7.75ZM10 4.75C11.2426 4.75 12.25 5.75736 12.25 7H13.75C13.75 4.92893 12.0711 3.25 10 3.25V4.75ZM13 13.75C13.6008 13.75 14.1482 14.0891 14.5769 14.6848C15.0089 15.2852 15.25 16.0598 15.25 16.7083H16.75C16.75 15.7371 16.4052 14.6575 15.7944 13.8086C15.1801 12.9551 14.2275 12.25 13 12.25L13 13.75ZM4.75 16.7083C4.75 16.0598 4.99109 15.2852 5.42315 14.6848C5.85183 14.0891 6.39919 13.75 6.99998 13.75L7.00002 12.25C5.77253 12.25 4.81989 12.9551 4.20564 13.8086C3.59477 14.6575 3.25 15.7371 3.25 16.7083H4.75ZM7 13.75H9V12.25H7V13.75Z" fill="#683CED"/>
</svg>

