<svg width="18" height="18" viewBox="0 0 18 18" fill="none" xmlns="http://www.w3.org/2000/svg">
<path d="M1.25 1V0.5C0.973858 0.5 0.75 0.723858 0.75 1H1.25ZM17.25 1H17.75C17.75 0.723858 17.5261 0.5 17.25 0.5V1ZM17.25 17V17.5C17.5261 17.5 17.75 17.2761 17.75 17H17.25ZM1.25 17H0.75C0.75 17.2761 0.973858 17.5 1.25 17.5V17ZM1.75 9C1.75 8.72386 1.52614 8.5 1.25 8.5C0.973858 8.5 0.75 8.72386 0.75 9H1.75ZM0.75 4C0.75 4.27614 0.973858 4.5 1.25 4.5C1.52614 4.5 1.75 4.27614 1.75 4H0.75ZM4.25 4.5C3.97386 4.5 3.75 4.72386 3.75 5C3.75 5.27614 3.97386 5.5 4.25 5.5V4.5ZM14.25 5.5C14.5261 5.5 14.75 5.27614 14.75 5C14.75 4.72386 14.5261 4.5 14.25 4.5V5.5ZM4.25 8.5C3.97386 8.5 3.75 8.72386 3.75 9C3.75 9.27614 3.97386 9.5 4.25 9.5V8.5ZM14.25 9.5C14.5261 9.5 14.75 9.27614 14.75 9C14.75 8.72386 14.5261 8.5 14.25 8.5V9.5ZM4.25 12.5C3.97386 12.5 3.75 12.7239 3.75 13C3.75 13.2761 3.97386 13.5 4.25 13.5V12.5ZM10.25 13.5C10.5261 13.5 10.75 13.2761 10.75 13C10.75 12.7239 10.5261 12.5 10.25 12.5V13.5ZM1.25 1.5H17.25V0.5H1.25V1.5ZM16.75 1V17H17.75V1H16.75ZM17.25 16.5H1.25V17.5H17.25V16.5ZM1.75 17V9H0.75V17H1.75ZM1.75 4V1H0.75V4H1.75ZM4.25 5.5H14.25V4.5H4.25V5.5ZM4.25 9.5H14.25V8.5H4.25V9.5ZM4.25 13.5H10.25V12.5H4.25V13.5Z" fill="black"/>
</svg>
