<svg width="7" height="12" viewBox="0 0 7 12" fill="none" xmlns="http://www.w3.org/2000/svg">
<path d="M0.646447 10.6464C0.451184 10.8417 0.451184 11.1583 0.646447 11.3536C0.841709 11.5488 1.15829 11.5488 1.35355 11.3536L0.646447 10.6464ZM6 6L6.35355 6.35355C6.44732 6.25979 6.5 6.13261 6.5 6C6.5 5.86739 6.44732 5.74022 6.35355 5.64645L6 6ZM1.35355 0.646447C1.15829 0.451184 0.841709 0.451184 0.646447 0.646447C0.451184 0.841709 0.451184 1.15829 0.646447 1.35355L1.35355 0.646447ZM1.35355 11.3536L6.35355 6.35355L5.64645 5.64645L0.646447 10.6464L1.35355 11.3536ZM6.35355 5.64645L1.35355 0.646447L0.646447 1.35355L5.64645 6.35355L6.35355 5.64645Z" fill="black"/>
</svg>
